<?xml version="1.0" standalone="no"?>
<!DOCTYPE svg PUBLIC "-//W3C//DTD SVG 20010904//EN"
 "http://www.w3.org/TR/2001/REC-SVG-20010904/DTD/svg10.dtd">
<svg version="1.0" xmlns="http://www.w3.org/2000/svg"
 width="900.000000pt" height="1800.000000pt" viewBox="0 0 900.000000 1800.000000"
 preserveAspectRatio="xMidYMid meet">
<metadata>
Created by potrace 1.15, written by Peter Selinger 2001-2017
</metadata>
<g transform="translate(0.000000,1800.000000) scale(0.100000,-0.100000)"
fill="#000000" stroke="none">
<path d="M4265 17990 c-381 -39 -701 -130 -1017 -292 -215 -109 -400 -243
-595 -431 -339 -327 -544 -655 -684 -1092 -62 -192 -90 -329 -114 -555 -48
-447 38 -945 234 -1355 34 -71 61 -132 61 -136 0 -5 -17 -9 -38 -9 -95 0 -222
-58 -303 -139 -210 -211 -176 -554 71 -720 67 -44 137 -70 214 -80 l51 -6 3
-5411 2 -5411 -52 -7 c-115 -15 -207 -58 -285 -135 -216 -213 -178 -567 78
-732 61 -39 156 -69 218 -69 46 0 51 -3 107 -62 109 -115 246 -238 329 -297
246 -176 577 -326 915 -415 110 -29 369 -82 453 -92 31 -3 57 -10 57 -14 0
-62 27 -177 56 -237 98 -204 334 -327 549 -283 80 16 210 80 262 129 87 81
148 209 159 331 4 39 10 70 15 70 36 0 330 57 434 85 528 139 899 342 1232
673 l112 112 75 0 c306 0 531 297 447 592 -55 193 -213 323 -417 344 l-64 7 0
5413 0 5414 49 0 c148 0 325 112 396 251 96 187 62 406 -87 551 -96 95 -204
138 -346 138 -46 0 -82 3 -80 8 186 361 281 698 309 1094 26 371 -45 784 -203
1176 -143 354 -424 730 -748 1000 -147 123 -243 188 -400 272 -378 204 -783
312 -1214 324 -83 3 -191 1 -241 -4z m460 -210 c309 -34 648 -144 915 -295
485 -275 860 -706 1064 -1223 106 -266 155 -516 164 -819 11 -414 -68 -773
-248 -1138 -28 -55 -64 -121 -80 -148 l-30 -47 -2057 2 -2058 3 -80 157 c-162
316 -242 603 -266 964 -45 665 202 1331 676 1823 306 318 719 556 1155 666 80
20 195 40 345 58 67 9 416 6 500 -3z m2240 -3888 c86 -40 137 -103 153 -191
23 -127 -36 -239 -158 -295 l-45 -21 -2410 0 c-1953 0 -2417 2 -2447 13 -126
45 -200 172 -176 303 19 105 95 182 205 208 22 5 1058 8 2433 8 l2395 -2 50
-23z m-405 -1916 l0 -913 -97 -41 c-54 -23 -195 -83 -313 -135 -1001 -439
-1294 -568 -1420 -622 -80 -34 -397 -173 -705 -308 -308 -135 -686 -300 -840
-367 -154 -68 -372 -163 -485 -213 -113 -49 -224 -98 -247 -108 l-43 -18 0
913 0 913 93 41 c50 22 180 78 287 125 107 46 251 109 320 140 69 30 395 173
725 317 330 144 650 283 710 310 61 27 508 223 995 436 487 212 914 399 950
415 36 15 66 29 68 29 1 0 2 -411 2 -914z m0 -4104 l0 -798 -77 -33 c-147 -63
-1908 -833 -2028 -886 -66 -30 -172 -76 -235 -103 -172 -75 -406 -177 -675
-295 -349 -153 -775 -339 -968 -423 l-167 -72 2 801 3 800 135 60 c74 33 207
91 295 129 88 38 230 101 315 138 85 38 567 248 1070 468 503 220 1025 448
1160 507 135 59 306 134 380 166 74 32 277 121 450 198 173 76 321 139 328
140 9 1 12 -165 12 -797z m-7 -4703 c-5 -4 -114 -53 -243 -109 -129 -56 -327
-143 -440 -192 -113 -49 -293 -128 -400 -175 -107 -47 -229 -101 -271 -119
l-77 -34 -1356 0 -1356 0 0 166 0 165 42 19 c24 10 142 62 263 115 121 53 270
118 330 145 61 26 272 119 470 205 198 86 430 188 515 225 167 74 1643 719
1955 855 105 46 276 121 380 167 l190 83 3 -754 c1 -415 -1 -758 -5 -762z
m424 -1052 c157 -85 194 -292 76 -418 -30 -33 -63 -55 -99 -69 -54 -20 -67
-20 -2454 -20 -2389 0 -2399 0 -2454 20 -60 23 -128 87 -152 145 -20 49 -18
161 5 211 24 52 83 111 135 135 40 18 118 19 2476 16 2307 -2 2437 -3 2467
-20z m-487 -723 c-25 -25 -79 -73 -120 -107 -617 -500 -1684 -698 -2672 -496
-473 96 -895 292 -1186 548 -50 45 -92 86 -92 92 0 5 775 9 2057 9 l2057 0
-44 -46z m-1705 -885 c0 -102 -25 -159 -97 -224 -150 -134 -384 -86 -480 98
-17 33 -22 60 -22 122 l-1 80 290 5 c160 3 295 5 300 4 6 0 10 -36 10 -85z"/>
<path d="M4185 17456 c-350 -91 -684 -284 -950 -551 -132 -132 -199 -213 -297
-361 -319 -477 -452 -1060 -367 -1609 15 -98 64 -297 93 -375 l24 -65 38 63
c229 376 469 538 829 560 89 6 110 10 109 22 -1 8 -18 68 -38 134 -119 387
-136 784 -50 1119 92 360 321 717 646 1008 52 47 81 79 70 79 -9 -1 -57 -11
-107 -24z"/>
</g>
</svg>
