<?xml version="1.0" standalone="no"?>
<!DOCTYPE svg PUBLIC "-//W3C//DTD SVG 20010904//EN"
 "http://www.w3.org/TR/2001/REC-SVG-20010904/DTD/svg10.dtd">
<svg version="1.0" xmlns="http://www.w3.org/2000/svg"
 width="512.000000pt" height="512.000000pt" viewBox="0 0 512.000000 512.000000"
 preserveAspectRatio="xMidYMid meet">
<metadata>
Created by potrace 1.15, written by Peter Selinger 2001-2017
</metadata>
<g transform="translate(0.000000,512.000000) scale(0.100000,-0.100000)"
fill="#000000" stroke="none">
<path d="M2423 5101 c-94 -35 -179 -108 -214 -183 -10 -22 -16 -26 -43 -21
-48 7 -154 -14 -212 -42 -66 -32 -143 -109 -177 -177 -48 -97 -55 -245 -15
-334 10 -21 6 -29 -34 -76 -138 -162 -272 -446 -324 -688 -43 -200 -56 -459
-34 -655 35 -298 137 -580 294 -810 113 -165 324 -352 468 -414 43 -18 48 -24
62 -73 40 -139 44 -244 17 -398 -60 -335 -72 -416 -81 -521 -11 -131 1 -312
26 -399 60 -207 194 -310 404 -310 376 0 508 327 394 975 -14 83 -34 197 -45
255 -27 154 -23 259 16 397 14 48 19 54 62 73 88 39 218 135 313 230 386 389
548 1032 416 1650 -52 242 -186 526 -324 688 -40 47 -44 55 -34 76 40 89 33
237 -15 334 -34 68 -111 145 -177 177 -58 28 -164 49 -213 42 -27 -5 -33 -2
-44 25 -20 49 -109 132 -174 163 -80 39 -230 46 -312 16z m238 -203 c46 -25
83 -77 98 -134 12 -46 45 -81 81 -86 14 -2 50 3 81 11 83 20 137 9 192 -40 82
-71 97 -168 43 -262 -45 -77 -39 -110 32 -188 264 -288 404 -735 371 -1179
-29 -378 -174 -725 -399 -950 -90 -90 -141 -127 -270 -195 -110 -58 -124 -77
-162 -215 -20 -74 -23 -108 -23 -260 1 -160 4 -192 38 -367 85 -446 70 -709
-47 -798 -73 -55 -199 -55 -272 0 -117 89 -132 352 -47 798 34 175 37 207 38
367 0 152 -3 186 -23 260 -38 138 -52 157 -162 215 -129 68 -180 105 -270 195
-343 343 -485 942 -356 1492 55 233 180 475 328 637 71 78 77 111 32 188 -48
84 -41 171 19 240 59 67 136 87 229 59 77 -24 129 4 149 78 36 139 178 203
300 134z"/>
<path d="M2382 4340 c-563 -148 -875 -979 -637 -1697 104 -311 309 -558 546
-654 173 -71 365 -71 538 0 401 163 670 721 622 1286 -40 464 -252 843 -561
1004 -154 81 -345 103 -508 61z m337 -201 c314 -110 541 -525 541 -989 0 -621
-397 -1112 -814 -1004 -456 118 -715 828 -520 1431 99 308 319 542 546 582 70
13 180 4 247 -20z"/>
<path d="M2430 3971 c-248 -79 -434 -401 -443 -766 -2 -86 0 -95 22 -119 48
-51 136 -39 158 21 6 15 16 78 22 140 30 294 164 509 339 543 81 16 99 25 118
61 13 27 14 39 5 70 -6 21 -21 45 -34 54 -29 20 -117 19 -187 -4z"/>
<path d="M2503 495 c-34 -24 -47 -76 -29 -118 17 -41 41 -57 88 -57 42 0 72
20 88 59 26 63 -20 131 -87 131 -21 0 -48 -7 -60 -15z"/>
</g>
</svg>
